<?xml version="1.0" encoding="UTF-8" standalone="no"?>
<!-- Created with Inkscape (http://www.inkscape.org/) -->

<svg
   xmlns:dc="http://purl.org/dc/elements/1.1/"
   xmlns:cc="http://creativecommons.org/ns#"
   xmlns:rdf="http://www.w3.org/1999/02/22-rdf-syntax-ns#"
   xmlns:svg="http://www.w3.org/2000/svg"
   xmlns="http://www.w3.org/2000/svg"
   xmlns:sodipodi="http://sodipodi.sourceforge.net/DTD/sodipodi-0.dtd"
   xmlns:inkscape="http://www.inkscape.org/namespaces/inkscape"
   width="128"
   height="128"
   id="svg2"
   version="1.1"
   inkscape:version="0.48.2 r9819"
   sodipodi:docname="logo.svg"
   inkscape:export-filename="/Users/cameron/Workspace/proverbinatus/logo.png"
   inkscape:export-xdpi="25.309999"
   inkscape:export-ydpi="25.309999">
  <defs
     id="defs4" />
  <sodipodi:namedview
     id="base"
     pagecolor="#ffffff"
     bordercolor="#666666"
     borderopacity="1.0"
     inkscape:pageopacity="0.0"
     inkscape:pageshadow="2"
     inkscape:zoom="2"
     inkscape:cx="21.166515"
     inkscape:cy="81.282354"
     inkscape:document-units="px"
     inkscape:current-layer="layer1"
     showgrid="false"
     inkscape:window-width="1280"
     inkscape:window-height="686"
     inkscape:window-x="0"
     inkscape:window-y="0"
     inkscape:window-maximized="1"
     fit-margin-top="0"
     fit-margin-left="0"
     fit-margin-right="0"
     fit-margin-bottom="0" />
  <metadata
     id="metadata7">
    <rdf:RDF>
      <cc:Work
         rdf:about="">
        <dc:format>image/svg+xml</dc:format>
        <dc:type
           rdf:resource="http://purl.org/dc/dcmitype/StillImage" />
        <dc:title></dc:title>
      </cc:Work>
    </rdf:RDF>
  </metadata>
  <g
     inkscape:label="Layer 1"
     inkscape:groupmode="layer"
     id="layer1"
     transform="translate(-221.32443,-706.57329)">
    <path
       sodipodi:type="arc"
       style="fill:#671919;fill-opacity:1"
       id="path3809"
       sodipodi:cx="267.63992"
       sodipodi:cy="171.17453"
       sodipodi:rx="78.842407"
       sodipodi:ry="73.539108"
       d="m 346.48233,171.17453 c 0,40.61453 -35.29895,73.53911 -78.84241,73.53911 -43.54346,0 -78.8424,-32.92458 -78.8424,-73.53911 0,-40.61453 35.29894,-73.539108 78.8424,-73.539108 43.54346,0 78.84241,32.924578 78.84241,73.539108 z"
       transform="matrix(0.81174589,0,0,0.87028523,68.06882,621.60262)" />
    <g
       id="g3840"
       transform="matrix(0.9171738,0,0,0.9171738,23.632347,63.823678)">
      <path
         inkscape:connector-curvature="0"
         id="path3024"
         d="m 295.68783,809.14884 c 5.56236,-1.93369 5.81994,-11.90501 13.4349,-9.99725 6.9384,-2.93332 2.95603,-12.70651 4.2935,-18.72564 2.67953,-8.30963 6.05309,-17.02294 4.68975,-25.99109 -3.8809,-14.00256 -17.1371,-22.88897 -30.35307,-23.41341 -14.43481,-1.07372 -30.64283,7.41385 -34.91824,23.04083 -2.26415,9.45 2.41139,18.37795 4.46341,27.29559 0.84968,5.69555 -2.29459,14.63505 3.95187,17.67215 5.19468,-0.10784 10.02794,2.96743 10.77528,8.70537 5.82058,3.29356 12.81546,2.43866 19.18843,2.21193 1.50422,-0.15753 3.01835,-0.34408 4.47417,-0.79848 z"
         style="fill:#ffffff;fill-opacity:1" />
      <path
         inkscape:connector-curvature="0"
         id="path3020"
         d="m 265.14329,788.89762 c -4.85841,-2.48371 -3.94563,-11.8643 0.17048,-14.88142 5.81448,-4.60714 15.17969,-0.85634 13.3239,7.86032 -1.01236,5.92097 -8.70584,8.33372 -13.49438,7.0211 z"
         style="fill:#671919;fill-opacity:1" />
      <path
         inkscape:connector-curvature="0"
         id="path3015"
         d="m 298.8541,788.77276 c -7.2625,-1.23367 -9.56043,-12.77255 -2.82649,-16.44769 5.28084,-1.11066 12.81656,1.4193 12.39298,8.44981 1.14347,7.25123 -3.33943,9.96559 -9.56649,7.99788 z"
         style="fill:#671919;fill-opacity:1" />
      <path
         transform="matrix(0.87225984,0,0,0.93516317,1.4554874,557.8734)"
         d="m 330.75,255.375 c 0,3.79696 -2.12665,6.875 -4.75,6.875 -2.62335,0 -4.75,-3.07804 -4.75,-6.875 0,-3.79696 2.12665,-6.875 4.75,-6.875 2.62335,0 4.75,3.07804 4.75,6.875 z"
         sodipodi:ry="6.875"
         sodipodi:rx="4.75"
         sodipodi:cy="255.375"
         sodipodi:cx="326"
         id="path3805"
         style="fill:#671919;fill-opacity:1"
         sodipodi:type="arc" />
    </g>
  </g>
</svg>
